<?xml version="1.0" encoding="UTF-8" standalone="no"?>
<svg width="100%" height="100%" viewBox="0 0 800 500" preserveAspectRatio="xMidYMid meet" xmlns="http://www.w3.org/2000/svg">
  <!-- 定义箭头标记 -->
  <defs>
    <marker id="arrowhead" markerWidth="10" markerHeight="7" refX="9" refY="3.5" orient="auto">
      <polygon points="0 0, 10 3.5, 0 7" fill="#333"/>
    </marker>
  </defs>
  
  <!-- 背景 -->
  <rect x="0" y="0" width="800" height="500" fill="#f8f9fa" rx="10" ry="10"/>
  
  <!-- 标题 -->
  <text x="400" y="50" font-family="Arial" font-size="24" text-anchor="middle" fill="#2c5282" font-weight="bold">Ambient模式架构概览</text>
  
  <!-- 命名空间框 -->
  <rect x="100" y="100" width="600" height="350" fill="white" stroke="#ddd" stroke-width="2" rx="10" ry="10"/>
  <text x="400" y="130" font-family="Arial" font-size="18" text-anchor="middle" fill="#2c5282">命名空间: demo-ambient</text>
  
  <!-- 客户端Pod -->
  <rect x="150" y="200" width="120" height="100" fill="#e2e8f0" stroke="#718096" stroke-width="2" rx="5" ry="5"/>
  <text x="210" y="230" font-family="Arial" font-size="16" text-anchor="middle" fill="#2d3748">客户端Pod</text>
  <rect x="175" y="250" width="70" height="30" fill="white" stroke="#718096" stroke-width="1" rx="3" ry="3"/>
  <text x="210" y="270" font-family="Arial" font-size="14" text-anchor="middle" fill="#2d3748">curl</text>
  
  <!-- 服务器Pod -->
  <rect x="530" y="200" width="120" height="100" fill="#e2e8f0" stroke="#718096" stroke-width="2" rx="5" ry="5"/>
  <text x="590" y="230" font-family="Arial" font-size="16" text-anchor="middle" fill="#2d3748">服务器Pod</text>
  <rect x="555" y="250" width="70" height="30" fill="white" stroke="#718096" stroke-width="1" rx="3" ry="3"/>
  <text x="590" y="270" font-family="Arial" font-size="14" text-anchor="middle" fill="#2d3748">httpbin</text>
  
  <!-- ztunnel -->
  <rect x="150" y="350" width="120" height="50" fill="#805ad5" stroke="#553c9a" stroke-width="2" rx="5" ry="5"/>
  <text x="210" y="380" font-family="Arial" font-size="16" text-anchor="middle" fill="white">ztunnel</text>
  
  <!-- Waypoint代理 -->
  <rect x="400" y="350" width="120" height="50" fill="#805ad5" stroke="#553c9a" stroke-width="2" rx="5" ry="5"/>
  <text x="460" y="380" font-family="Arial" font-size="16" text-anchor="middle" fill="white">Waypoint代理</text>
  
  <!-- 连接线 -->
  <!-- 客户端到ztunnel -->
  <path d="M 210 300 L 210 350" fill="none" stroke="#333" stroke-width="2" marker-end="url(#arrowhead)"/>
  <!-- ztunnel到Waypoint -->
  <path d="M 270 375 L 400 375" fill="none" stroke="#333" stroke-width="2" marker-end="url(#arrowhead)"/>
  <!-- Waypoint到服务器 -->
  <path d="M 520 375 L 590 375 L 590 300" fill="none" stroke="#333" stroke-width="2" marker-end="url(#arrowhead)"/>
  
  <!-- 标签 -->
  <rect x="210" y="315" width="60" height="20" fill="white" fill-opacity="0.8" rx="3" ry="3"/>
  <text x="240" y="330" font-family="Arial" font-size="12" text-anchor="middle" fill="#2d3748">1. 请求</text>
  
  <rect x="320" y="355" width="70" height="20" fill="white" fill-opacity="0.8" rx="3" ry="3"/>
  <text x="355" y="370" font-family="Arial" font-size="12" text-anchor="middle" fill="#2d3748">2. L4处理</text>
  
  <rect x="520" y="355" width="70" height="20" fill="white" fill-opacity="0.8" rx="3" ry="3"/>
  <text x="555" y="370" font-family="Arial" font-size="12" text-anchor="middle" fill="#2d3748">3. L7处理</text>
  
  <!-- 图例 -->
  <rect x="150" y="430" width="20" height="20" fill="#e2e8f0" stroke="#718096" stroke-width="2" rx="3" ry="3"/>
  <text x="180" y="445" font-family="Arial" font-size="14" text-anchor="start" fill="#2d3748">Pod</text>
  
  <rect x="250" y="430" width="20" height="20" fill="#805ad5" stroke="#553c9a" stroke-width="2" rx="3" ry="3"/>
  <text x="280" y="445" font-family="Arial" font-size="14" text-anchor="start" fill="#2d3748">Ambient组件</text>
  
  <line x1="350" y1="440" x2="400" y2="440" stroke="#333" stroke-width="2" marker-end="url(#arrowhead)"/>
  <text x="430" y="445" font-family="Arial" font-size="14" text-anchor="start" fill="#2d3748">数据流</text>
</svg>
