<?xml version="1.0" encoding="UTF-8" standalone="no"?>
<svg width="100%" height="100%" viewBox="0 0 800 500" preserveAspectRatio="xMidYMid meet" xmlns="http://www.w3.org/2000/svg">
  <!-- 定义箭头标记 -->
  <defs>
    <marker id="arrowhead" markerWidth="10" markerHeight="7" refX="9" refY="3.5" orient="auto">
      <polygon points="0 0, 10 3.5, 0 7" fill="#333"/>
    </marker>
  </defs>
  
  <!-- 背景 -->
  <rect x="0" y="0" width="800" height="500" fill="#f8f9fa" rx="10" ry="10"/>
  
  <!-- 标题 -->
  <text x="400" y="50" font-family="Arial" font-size="24" text-anchor="middle" fill="#2c5282" font-weight="bold">Ambient可观察性架构</text>
  
  <!-- 集群框 -->
  <rect x="50" y="80" width="700" height="370" fill="white" stroke="#ddd" stroke-width="2" rx="10" ry="10"/>
  <text x="400" y="110" font-family="Arial" font-size="18" text-anchor="middle" fill="#2c5282">Kubernetes集群</text>
  
  <!-- 可观察性组件 -->
  <rect x="100" y="130" width="600" height="300" fill="#f7fafc" stroke="#e2e8f0" stroke-width="2" rx="5" ry="5"/>
  <text x="400" y="155" font-family="Arial" font-size="16" text-anchor="middle" fill="#2c5282">Istio Ambient可观察性组件</text>
  
  <!-- Prometheus -->
  <rect x="150" y="180" width="120" height="80" fill="#e53e3e" stroke="#c53030" stroke-width="2" rx="5" ry="5"/>
  <text x="210" y="220" font-family="Arial" font-size="16" text-anchor="middle" fill="white">Prometheus</text>
  <text x="210" y="240" font-family="Arial" font-size="12" text-anchor="middle" fill="white">指标收集</text>
  
  <!-- Grafana -->
  <rect x="150" y="280" width="120" height="80" fill="#38a169" stroke="#2f855a" stroke-width="2" rx="5" ry="5"/>
  <text x="210" y="320" font-family="Arial" font-size="16" text-anchor="middle" fill="white">Grafana</text>
  <text x="210" y="340" font-family="Arial" font-size="12" text-anchor="middle" fill="white">指标可视化</text>
  
  <!-- Kiali -->
  <rect x="340" y="180" width="120" height="80" fill="#3182ce" stroke="#2c5282" stroke-width="2" rx="5" ry="5"/>
  <text x="400" y="220" font-family="Arial" font-size="16" text-anchor="middle" fill="white">Kiali</text>
  <text x="400" y="240" font-family="Arial" font-size="12" text-anchor="middle" fill="white">服务拓扑</text>
  
  <!-- Jaeger -->
  <rect x="340" y="280" width="120" height="80" fill="#805ad5" stroke="#6b46c1" stroke-width="2" rx="5" ry="5"/>
  <text x="400" y="320" font-family="Arial" font-size="16" text-anchor="middle" fill="white">Jaeger</text>
  <text x="400" y="340" font-family="Arial" font-size="12" text-anchor="middle" fill="white">分布式追踪</text>
  
  <!-- Envoy Access Logs -->
  <rect x="530" y="180" width="120" height="80" fill="#dd6b20" stroke="#c05621" stroke-width="2" rx="5" ry="5"/>
  <text x="590" y="210" font-family="Arial" font-size="16" text-anchor="middle" fill="white">Envoy</text>
  <text x="590" y="230" font-family="Arial" font-size="12" text-anchor="middle" fill="white">访问日志</text>
  <text x="590" y="250" font-family="Arial" font-size="12" text-anchor="middle" fill="white">(Waypoint)</text>
  
  <!-- ztunnel Metrics -->
  <rect x="530" y="280" width="120" height="80" fill="#4299e1" stroke="#3182ce" stroke-width="2" rx="5" ry="5"/>
  <text x="590" y="310" font-family="Arial" font-size="16" text-anchor="middle" fill="white">ztunnel</text>
  <text x="590" y="330" font-family="Arial" font-size="12" text-anchor="middle" fill="white">连接指标</text>
  <text x="590" y="350" font-family="Arial" font-size="12" text-anchor="middle" fill="white">mTLS状态</text>
  
  <!-- 连接线 - 修改后的路径，避免穿过方格 -->
  <!-- Prometheus到Grafana -->
  <path d="M 210 260 L 210 280" fill="none" stroke="#333" stroke-width="2" marker-end="url(#arrowhead)"/>
  
  <!-- Prometheus到Kiali - 修改路径避免穿过其他元素 -->
  <path d="M 270 200 L 310 200 L 340 200" fill="none" stroke="#333" stroke-width="2" marker-end="url(#arrowhead)"/>
  
  <!-- Jaeger到Kiali -->
  <path d="M 400 280 L 400 260" fill="none" stroke="#333" stroke-width="2" marker-end="url(#arrowhead)"/>
  
  <!-- Envoy到Prometheus - 修改路径避免穿过其他元素 -->
  <path d="M 530 200 L 490 200 L 490 160 L 270 160 L 270 180" fill="none" stroke="#333" stroke-width="2" marker-end="url(#arrowhead)"/>
  
  <!-- ztunnel到Prometheus - 修改路径避免穿过其他元素 -->
  <path d="M 530 300 L 490 300 L 490 370 L 120 370 L 120 220 L 150 220" fill="none" stroke="#333" stroke-width="2" marker-end="url(#arrowhead)"/>
  
  <!-- Envoy到Jaeger - 修改路径避免穿过其他元素 -->
  <path d="M 590 260 L 590 270 L 490 270 L 490 320 L 460 320" fill="none" stroke="#333" stroke-width="2" marker-end="url(#arrowhead)"/>
  
  <!-- 标签 - 调整位置以避免与线条重叠 -->
  <rect x="290" y="180" width="50" height="20" fill="white" fill-opacity="0.8" rx="3" ry="3"/>
  <text x="315" y="195" font-family="Arial" font-size="12" text-anchor="middle" fill="#2d3748">指标</text>
  
  <rect x="400" y="260" width="50" height="20" fill="white" fill-opacity="0.8" rx="3" ry="3"/>
  <text x="425" y="275" font-family="Arial" font-size="12" text-anchor="middle" fill="#2d3748">追踪</text>
  
  <rect x="490" y="280" width="50" height="20" fill="white" fill-opacity="0.8" rx="3" ry="3"/>
  <text x="515" y="295" font-family="Arial" font-size="12" text-anchor="middle" fill="#2d3748">指标</text>
  
  <!-- 图例 - 调整位置确保不重叠 -->
  <rect x="100" y="400" width="20" height="20" fill="#e53e3e" stroke="#c53030" stroke-width="2" rx="3" ry="3"/>
  <text x="130" y="415" font-family="Arial" font-size="14" text-anchor="start" fill="#2d3748">指标收集</text>
  
  <rect x="250" y="400" width="20" height="20" fill="#38a169" stroke="#2f855a" stroke-width="2" rx="3" ry="3"/>
  <text x="280" y="415" font-family="Arial" font-size="14" text-anchor="start" fill="#2d3748">可视化</text>
  
  <rect x="400" y="400" width="20" height="20" fill="#805ad5" stroke="#6b46c1" stroke-width="2" rx="3" ry="3"/>
  <text x="430" y="415" font-family="Arial" font-size="14" text-anchor="start" fill="#2d3748">分布式追踪</text>
  
  <rect x="550" y="400" width="20" height="20" fill="#4299e1" stroke="#3182ce" stroke-width="2" rx="3" ry="3"/>
  <text x="580" y="415" font-family="Arial" font-size="14" text-anchor="start" fill="#2d3748">数据源</text>
  
  <!-- 可观察性特点 -->
  <rect x="100" y="430" width="600" height="30" fill="#ebf8ff" stroke="#3182ce" stroke-width="1" rx="3" ry="3"/>
  <text x="400" y="450" font-family="Arial" font-size="14" text-anchor="middle" fill="#2c5282">Ambient模式提供与Sidecar模式相同的可观察性能力，但资源消耗更低</text>
</svg>
