<?xml version="1.0" encoding="UTF-8" standalone="no"?>
<svg width="100%" height="100%" viewBox="0 0 800 500" preserveAspectRatio="xMidYMid meet" xmlns="http://www.w3.org/2000/svg">
  <!-- 定义箭头标记 -->
  <defs>
    <marker id="arrowhead" markerWidth="10" markerHeight="7" refX="9" refY="3.5" orient="auto">
      <polygon points="0 0, 10 3.5, 0 7" fill="#333"/>
    </marker>
  </defs>
  
  <!-- 背景 -->
  <rect x="0" y="0" width="800" height="500" fill="#f8f9fa" rx="10" ry="10"/>
  
  <!-- 标题 -->
  <text x="400" y="50" font-family="Arial" font-size="24" text-anchor="middle" fill="#2c5282" font-weight="bold">Ambient模式关键组件</text>
  
  <!-- 集群框 -->
  <rect x="50" y="80" width="700" height="370" fill="white" stroke="#ddd" stroke-width="2" rx="10" ry="10"/>
  <text x="400" y="110" font-family="Arial" font-size="18" text-anchor="middle" fill="#2c5282">Kubernetes集群</text>
  
  <!-- 控制平面 -->
  <rect x="100" y="130" width="600" height="100" fill="#ebf8ff" stroke="#3182ce" stroke-width="2" rx="5" ry="5"/>
  <text x="400" y="155" font-family="Arial" font-size="16" text-anchor="middle" fill="#2c5282">控制平面</text>
  
  <!-- istiod -->
  <rect x="150" y="170" width="120" height="40" fill="#3182ce" stroke="#2c5282" stroke-width="2" rx="5" ry="5"/>
  <text x="210" y="195" font-family="Arial" font-size="14" text-anchor="middle" fill="white">istiod</text>
  
  <!-- 配置API -->
  <rect x="350" y="170" width="120" height="40" fill="#3182ce" stroke="#2c5282" stroke-width="2" rx="5" ry="5"/>
  <text x="410" y="195" font-family="Arial" font-size="14" text-anchor="middle" fill="white">配置API</text>
  
  <!-- 证书管理 -->
  <rect x="530" y="170" width="120" height="40" fill="#3182ce" stroke="#2c5282" stroke-width="2" rx="5" ry="5"/>
  <text x="590" y="195" font-family="Arial" font-size="14" text-anchor="middle" fill="white">证书管理</text>
  
  <!-- 数据平面 -->
  <rect x="100" y="250" width="600" height="180" fill="#f0fff4" stroke="#38a169" stroke-width="2" rx="5" ry="5"/>
  <text x="400" y="275" font-family="Arial" font-size="16" text-anchor="middle" fill="#2c5282">数据平面</text>
  
  <!-- ztunnel -->
  <rect x="150" y="290" width="500" height="50" fill="#805ad5" stroke="#553c9a" stroke-width="2" rx="5" ry="5"/>
  <text x="400" y="320" font-family="Arial" font-size="14" text-anchor="middle" fill="white">ztunnel (L4处理层)</text>
  
  <!-- Waypoint代理 -->
  <rect x="150" y="360" width="220" height="50" fill="#9f7aea" stroke="#6b46c1" stroke-width="2" rx="5" ry="5"/>
  <text x="260" y="390" font-family="Arial" font-size="14" text-anchor="middle" fill="white">Waypoint代理 (L7处理层)</text>
  
  <!-- 应用Pod -->
  <rect x="430" y="360" width="220" height="50" fill="#e2e8f0" stroke="#718096" stroke-width="2" rx="5" ry="5"/>
  <text x="540" y="390" font-family="Arial" font-size="14" text-anchor="middle" fill="#2d3748">应用Pod</text>
  
  <!-- 连接线 -->
  <!-- istiod到ztunnel -->
  <path d="M 210 210 L 210 290" fill="none" stroke="#333" stroke-width="2" marker-end="url(#arrowhead)"/>
  <!-- istiod到Waypoint -->
  <path d="M 210 210 L 260 210 L 260 360" fill="none" stroke="#333" stroke-width="2" marker-end="url(#arrowhead)"/>
  <!-- ztunnel到Waypoint -->
  <path d="M 260 340 L 260 360" fill="none" stroke="#333" stroke-width="2" marker-end="url(#arrowhead)"/>
  <!-- ztunnel到应用 -->
  <path d="M 540 340 L 540 360" fill="none" stroke="#333" stroke-width="2" marker-end="url(#arrowhead)"/>
  <!-- Waypoint到应用 -->
  <path d="M 370 385 L 430 385" fill="none" stroke="#333" stroke-width="2" marker-end="url(#arrowhead)"/>
  
  <!-- 标签 -->
  <rect x="170" y="235" width="80" height="20" fill="white" fill-opacity="0.8" rx="3" ry="3"/>
  <text x="210" y="250" font-family="Arial" font-size="12" text-anchor="middle" fill="#2d3748">配置下发</text>
  
  <rect x="270" y="235" width="80" height="20" fill="white" fill-opacity="0.8" rx="3" ry="3"/>
  <text x="310" y="250" font-family="Arial" font-size="12" text-anchor="middle" fill="#2d3748">证书分发</text>
  
  <rect x="220" y="345" width="80" height="20" fill="white" fill-opacity="0.8" rx="3" ry="3"/>
  <text x="260" y="360" font-family="Arial" font-size="12" text-anchor="middle" fill="#2d3748">L4到L7转发</text>
  
  <rect x="500" y="345" width="80" height="20" fill="white" fill-opacity="0.8" rx="3" ry="3"/>
  <text x="540" y="360" font-family="Arial" font-size="12" text-anchor="middle" fill="#2d3748">流量拦截</text>
  
  <rect x="380" y="365" width="40" height="20" fill="white" fill-opacity="0.8" rx="3" ry="3"/>
  <text x="400" y="380" font-family="Arial" font-size="12" text-anchor="middle" fill="#2d3748">请求</text>
  
  <!-- 图例 -->
  <rect x="100" y="450" width="20" height="20" fill="#3182ce" stroke="#2c5282" stroke-width="2" rx="3" ry="3"/>
  <text x="130" y="465" font-family="Arial" font-size="14" text-anchor="start" fill="#2d3748">控制平面组件</text>
  
  <rect x="300" y="450" width="20" height="20" fill="#805ad5" stroke="#553c9a" stroke-width="2" rx="3" ry="3"/>
  <text x="330" y="465" font-family="Arial" font-size="14" text-anchor="start" fill="#2d3748">L4处理组件</text>
  
  <rect x="500" y="450" width="20" height="20" fill="#9f7aea" stroke="#6b46c1" stroke-width="2" rx="3" ry="3"/>
  <text x="530" y="465" font-family="Arial" font-size="14" text-anchor="start" fill="#2d3748">L7处理组件</text>
</svg>
