<?xml version="1.0" encoding="UTF-8" standalone="no"?>
<svg width="100%" height="100%" viewBox="0 0 800 500" preserveAspectRatio="xMidYMid meet" xmlns="http://www.w3.org/2000/svg">
  <!-- 定义箭头标记 -->
  <defs>
    <marker id="arrowhead" markerWidth="10" markerHeight="7" refX="9" refY="3.5" orient="auto">
      <polygon points="0 0, 10 3.5, 0 7" fill="#333"/>
    </marker>
  </defs>
  
  <!-- 背景 -->
  <rect x="0" y="0" width="800" height="500" fill="#f8f9fa" rx="10" ry="10"/>
  
  <!-- 标题 -->
  <text x="400" y="50" font-family="Arial" font-size="24" text-anchor="middle" fill="#2c5282" font-weight="bold">Ambient模式安装流程</text>
  
  <!-- 时间线 -->
  <line x1="100" y1="150" x2="700" y2="150" stroke="#333" stroke-width="3"/>
  
  <!-- 步骤1：安装Istio -->
  <circle cx="150" cy="150" r="15" fill="#3182ce" stroke="#2c5282" stroke-width="2"/>
  <text x="150" y="155" font-family="Arial" font-size="14" text-anchor="middle" fill="white">1</text>
  <text x="150" y="185" font-family="Arial" font-size="16" text-anchor="middle" fill="#2d3748">安装Istio</text>
  <rect x="100" y="200" width="100" height="80" fill="#ebf8ff" stroke="#3182ce" stroke-width="2" rx="5" ry="5"/>
  <text x="150" y="230" font-family="Arial" font-size="14" text-anchor="middle" fill="#2d3748">下载并安装</text>
  <text x="150" y="250" font-family="Arial" font-size="14" text-anchor="middle" fill="#2d3748">支持Ambient</text>
  <text x="150" y="270" font-family="Arial" font-size="14" text-anchor="middle" fill="#2d3748">的Istio版本</text>
  
  <!-- 步骤2：配置Ambient模式 -->
  <circle cx="300" cy="150" r="15" fill="#3182ce" stroke="#2c5282" stroke-width="2"/>
  <text x="300" y="155" font-family="Arial" font-size="14" text-anchor="middle" fill="white">2</text>
  <text x="300" y="185" font-family="Arial" font-size="16" text-anchor="middle" fill="#2d3748">配置Ambient模式</text>
  <rect x="250" y="200" width="100" height="80" fill="#ebf8ff" stroke="#3182ce" stroke-width="2" rx="5" ry="5"/>
  <text x="300" y="230" font-family="Arial" font-size="14" text-anchor="middle" fill="#2d3748">使用ambient</text>
  <text x="300" y="250" font-family="Arial" font-size="14" text-anchor="middle" fill="#2d3748">配置文件</text>
  <text x="300" y="270" font-family="Arial" font-size="14" text-anchor="middle" fill="#2d3748">安装Istio</text>
  
  <!-- 步骤3：部署ztunnel -->
  <circle cx="450" cy="150" r="15" fill="#3182ce" stroke="#2c5282" stroke-width="2"/>
  <text x="450" y="155" font-family="Arial" font-size="14" text-anchor="middle" fill="white">3</text>
  <text x="450" y="185" font-family="Arial" font-size="16" text-anchor="middle" fill="#2d3748">部署ztunnel</text>
  <rect x="400" y="200" width="100" height="80" fill="#ebf8ff" stroke="#3182ce" stroke-width="2" rx="5" ry="5"/>
  <text x="450" y="230" font-family="Arial" font-size="14" text-anchor="middle" fill="#2d3748">验证ztunnel</text>
  <text x="450" y="250" font-family="Arial" font-size="14" text-anchor="middle" fill="#2d3748">DaemonSet</text>
  <text x="450" y="270" font-family="Arial" font-size="14" text-anchor="middle" fill="#2d3748">已正确部署</text>
  
  <!-- 步骤4：启用命名空间 -->
  <circle cx="600" cy="150" r="15" fill="#3182ce" stroke="#2c5282" stroke-width="2"/>
  <text x="600" y="155" font-family="Arial" font-size="14" text-anchor="middle" fill="white">4</text>
  <text x="600" y="185" font-family="Arial" font-size="16" text-anchor="middle" fill="#2d3748">启用命名空间</text>
  <rect x="550" y="200" width="100" height="80" fill="#ebf8ff" stroke="#3182ce" stroke-width="2" rx="5" ry="5"/>
  <text x="600" y="230" font-family="Arial" font-size="14" text-anchor="middle" fill="#2d3748">为命名空间</text>
  <text x="600" y="250" font-family="Arial" font-size="14" text-anchor="middle" fill="#2d3748">添加ambient</text>
  <text x="600" y="270" font-family="Arial" font-size="14" text-anchor="middle" fill="#2d3748">标签</text>
  
  <!-- 代码示例 -->
  <rect x="150" y="320" width="500" height="150" fill="white" stroke="#ddd" stroke-width="2" rx="5" ry="5"/>
  <text x="400" y="345" font-family="Arial" font-size="18" text-anchor="middle" fill="#2c5282">安装命令示例</text>
  
  <rect x="170" y="360" width="460" height="100" fill="#f8f9fa" stroke="#ddd" stroke-width="1" rx="3" ry="3"/>
  <text x="180" y="380" font-family="monospace" font-size="12" text-anchor="start" fill="#2d3748">curl -L https://istio.io/downloadIstio | ISTIO_VERSION=1.18.0 sh -</text>
  <text x="180" y="400" font-family="monospace" font-size="12" text-anchor="start" fill="#2d3748">cd istio-1.18.0</text>
  <text x="180" y="420" font-family="monospace" font-size="12" text-anchor="start" fill="#2d3748">./bin/istioctl install --set profile=ambient</text>
  <text x="180" y="440" font-family="monospace" font-size="12" text-anchor="start" fill="#2d3748">kubectl label namespace my-namespace istio.io/dataplane-mode=ambient</text>
  
  <!-- 连接线 -->
  <line x1="150" y1="150" x2="300" y2="150" stroke="#333" stroke-width="2"/>
  <line x1="300" y1="150" x2="450" y2="150" stroke="#333" stroke-width="2"/>
  <line x1="450" y1="150" x2="600" y2="150" stroke="#333" stroke-width="2"/>
</svg>
