<?xml version="1.0" encoding="UTF-8" standalone="no"?>
<svg width="100%" height="100%" viewBox="0 0 800 500" preserveAspectRatio="xMidYMid meet" xmlns="http://www.w3.org/2000/svg">
  <!-- 定义箭头标记 -->
  <defs>
    <marker id="arrowhead" markerWidth="10" markerHeight="7" refX="9" refY="3.5" orient="auto">
      <polygon points="0 0, 10 3.5, 0 7" fill="#333"/>
    </marker>
  </defs>
  
  <!-- 背景 -->
  <rect x="0" y="0" width="800" height="500" fill="#f8f9fa" rx="10" ry="10"/>
  
  <!-- 标题 -->
  <text x="400" y="50" font-family="Arial" font-size="24" text-anchor="middle" fill="#2c5282" font-weight="bold">从Sidecar到Ambient的迁移路径</text>
  
  <!-- 时间线 -->
  <line x1="100" y1="250" x2="700" y2="250" stroke="#333" stroke-width="3"/>
  
  <!-- 阶段1：准备环境 -->
  <circle cx="150" cy="250" r="15" fill="#3182ce" stroke="#2c5282" stroke-width="2"/>
  <text x="150" y="255" font-family="Arial" font-size="14" text-anchor="middle" fill="white">1</text>
  <text x="150" y="290" font-family="Arial" font-size="16" text-anchor="middle" fill="#2d3748">准备环境</text>
  <rect x="100" y="150" width="100" height="80" fill="#ebf8ff" stroke="#3182ce" stroke-width="2" rx="5" ry="5"/>
  <text x="150" y="180" font-family="Arial" font-size="14" text-anchor="middle" fill="#2d3748">安装支持</text>
  <text x="150" y="200" font-family="Arial" font-size="14" text-anchor="middle" fill="#2d3748">Ambient的</text>
  <text x="150" y="220" font-family="Arial" font-size="14" text-anchor="middle" fill="#2d3748">Istio版本</text>
  
  <!-- 阶段2：部署ztunnel -->
  <circle cx="275" cy="250" r="15" fill="#3182ce" stroke="#2c5282" stroke-width="2"/>
  <text x="275" y="255" font-family="Arial" font-size="14" text-anchor="middle" fill="white">2</text>
  <text x="275" y="290" font-family="Arial" font-size="16" text-anchor="middle" fill="#2d3748">部署ztunnel</text>
  <rect x="225" y="150" width="100" height="80" fill="#ebf8ff" stroke="#3182ce" stroke-width="2" rx="5" ry="5"/>
  <text x="275" y="180" font-family="Arial" font-size="14" text-anchor="middle" fill="#2d3748">在集群中</text>
  <text x="275" y="200" font-family="Arial" font-size="14" text-anchor="middle" fill="#2d3748">部署ztunnel</text>
  <text x="275" y="220" font-family="Arial" font-size="14" text-anchor="middle" fill="#2d3748">DaemonSet</text>
  
  <!-- 阶段3：选择试点命名空间 -->
  <circle cx="400" cy="250" r="15" fill="#3182ce" stroke="#2c5282" stroke-width="2"/>
  <text x="400" y="255" font-family="Arial" font-size="14" text-anchor="middle" fill="white">3</text>
  <text x="400" y="290" font-family="Arial" font-size="16" text-anchor="middle" fill="#2d3748">选择试点</text>
  <rect x="350" y="150" width="100" height="80" fill="#ebf8ff" stroke="#3182ce" stroke-width="2" rx="5" ry="5"/>
  <text x="400" y="180" font-family="Arial" font-size="14" text-anchor="middle" fill="#2d3748">选择低风险</text>
  <text x="400" y="200" font-family="Arial" font-size="14" text-anchor="middle" fill="#2d3748">服务进行</text>
  <text x="400" y="220" font-family="Arial" font-size="14" text-anchor="middle" fill="#2d3748">首次迁移</text>
  
  <!-- 阶段4：迁移命名空间 -->
  <circle cx="525" cy="250" r="15" fill="#3182ce" stroke="#2c5282" stroke-width="2"/>
  <text x="525" y="255" font-family="Arial" font-size="14" text-anchor="middle" fill="white">4</text>
  <text x="525" y="290" font-family="Arial" font-size="16" text-anchor="middle" fill="#2d3748">迁移命名空间</text>
  <rect x="475" y="150" width="100" height="80" fill="#ebf8ff" stroke="#3182ce" stroke-width="2" rx="5" ry="5"/>
  <text x="525" y="180" font-family="Arial" font-size="14" text-anchor="middle" fill="#2d3748">移除Sidecar</text>
  <text x="525" y="200" font-family="Arial" font-size="14" text-anchor="middle" fill="#2d3748">启用Ambient</text>
  <text x="525" y="220" font-family="Arial" font-size="14" text-anchor="middle" fill="#2d3748">模式标签</text>
  
  <!-- 阶段5：扩展迁移 -->
  <circle cx="650" cy="250" r="15" fill="#3182ce" stroke="#2c5282" stroke-width="2"/>
  <text x="650" y="255" font-family="Arial" font-size="14" text-anchor="middle" fill="white">5</text>
  <text x="650" y="290" font-family="Arial" font-size="16" text-anchor="middle" fill="#2d3748">扩展迁移</text>
  <rect x="600" y="150" width="100" height="80" fill="#ebf8ff" stroke="#3182ce" stroke-width="2" rx="5" ry="5"/>
  <text x="650" y="180" font-family="Arial" font-size="14" text-anchor="middle" fill="#2d3748">逐步将更多</text>
  <text x="650" y="200" font-family="Arial" font-size="14" text-anchor="middle" fill="#2d3748">命名空间迁移</text>
  <text x="650" y="220" font-family="Arial" font-size="14" text-anchor="middle" fill="#2d3748">到Ambient模式</text>
  
  <!-- 阶段3.5：添加Waypoint代理 -->
  <circle cx="462" cy="350" r="15" fill="#9f7aea" stroke="#6b46c1" stroke-width="2"/>
  <text x="462" y="355" font-family="Arial" font-size="14" text-anchor="middle" fill="white">+</text>
  <text x="462" y="380" font-family="Arial" font-size="16" text-anchor="middle" fill="#2d3748">添加Waypoint代理</text>
  <rect x="412" y="400" width="100" height="60" fill="#f0e6ff" stroke="#9f7aea" stroke-width="2" rx="5" ry="5"/>
  <text x="462" y="425" font-family="Arial" font-size="14" text-anchor="middle" fill="#2d3748">为需要L7功能</text>
  <text x="462" y="445" font-family="Arial" font-size="14" text-anchor="middle" fill="#2d3748">的服务配置</text>
  
  <!-- 连接线 -->
  <line x1="150" y1="250" x2="275" y2="250" stroke="#333" stroke-width="2"/>
  <line x1="275" y1="250" x2="400" y2="250" stroke="#333" stroke-width="2"/>
  <line x1="400" y1="250" x2="525" y2="250" stroke="#333" stroke-width="2"/>
  <line x1="525" y1="250" x2="650" y2="250" stroke="#333" stroke-width="2"/>
  
  <path d="M 462 250 L 462 335" fill="none" stroke="#9f7aea" stroke-width="2" stroke-dasharray="5,5" marker-end="url(#arrowhead)"/>
  
  <!-- 图例 -->
  <rect x="100" y="470" width="20" height="20" fill="#3182ce" stroke="#2c5282" stroke-width="2" rx="10" ry="10"/>
  <text x="130" y="485" font-family="Arial" font-size="14" text-anchor="start" fill="#2d3748">主要迁移步骤</text>
  
  <rect x="300" y="470" width="20" height="20" fill="#9f7aea" stroke="#6b46c1" stroke-width="2" rx="10" ry="10"/>
  <text x="330" y="485" font-family="Arial" font-size="14" text-anchor="start" fill="#2d3748">可选步骤</text>
  
  <line x1="500" y1="480" x2="550" y2="480" stroke="#9f7aea" stroke-width="2" stroke-dasharray="5,5"/>
  <text x="560" y="485" font-family="Arial" font-size="14" text-anchor="start" fill="#2d3748">可选路径</text>
</svg>
