<?xml version="1.0" encoding="UTF-8" standalone="no"?>
<svg width="100%" height="100%" viewBox="0 0 800 500" preserveAspectRatio="xMidYMid meet" xmlns="http://www.w3.org/2000/svg">
  <!-- 定义箭头标记 -->
  <defs>
    <marker id="arrowhead" markerWidth="10" markerHeight="7" refX="9" refY="3.5" orient="auto">
      <polygon points="0 0, 10 3.5, 0 7" fill="#333"/>
    </marker>
  </defs>
  
  <!-- 背景 -->
  <rect x="0" y="0" width="800" height="500" fill="#f8f9fa" rx="10" ry="10"/>
  
  <!-- 标题 -->
  <text x="400" y="50" font-family="Arial" font-size="24" text-anchor="middle" fill="#2c5282" font-weight="bold">Waypoint代理配置</text>
  
  <!-- 主要内容框 -->
  <rect x="50" y="80" width="700" height="370" fill="white" stroke="#ddd" stroke-width="2" rx="10" ry="10"/>
  
  <!-- 左侧：Gateway API配置 -->
  <rect x="80" y="100" width="300" height="330" fill="#ebf8ff" stroke="#3182ce" stroke-width="2" rx="5" ry="5"/>
  <text x="230" y="130" font-family="Arial" font-size="18" text-anchor="middle" fill="#2c5282">Gateway API配置</text>
  
  <!-- Gateway资源 -->
  <rect x="100" y="150" width="260" height="120" fill="#3182ce" stroke="#2c5282" stroke-width="2" rx="5" ry="5"/>
  <text x="230" y="175" font-family="Arial" font-size="16" text-anchor="middle" fill="white">Gateway资源</text>
  <text x="230" y="200" font-family="Arial" font-size="12" text-anchor="middle" fill="white">apiVersion: gateway.networking.k8s.io/v1beta1</text>
  <text x="230" y="220" font-family="Arial" font-size="12" text-anchor="middle" fill="white">kind: Gateway</text>
  <text x="230" y="240" font-family="Arial" font-size="12" text-anchor="middle" fill="white">gatewayClassName: istio-waypoint</text>
  
  <!-- 注解配置 -->
  <rect x="100" y="280" width="260" height="130" fill="#3182ce" stroke="#2c5282" stroke-width="2" rx="5" ry="5"/>
  <text x="230" y="305" font-family="Arial" font-size="16" text-anchor="middle" fill="white">关键注解</text>
  <text x="230" y="330" font-family="Arial" font-size="12" text-anchor="middle" fill="white">istio.io/service-account: httpbin</text>
  <text x="230" y="350" font-family="Arial" font-size="12" text-anchor="middle" fill="white">istio.io/waypoint-service-selector:</text>
  <text x="230" y="370" font-family="Arial" font-size="12" text-anchor="middle" fill="white">"app=httpbin"</text>
  <text x="230" y="390" font-family="Arial" font-size="12" text-anchor="middle" fill="white">(指定服务选择器)</text>
  
  <!-- 右侧：Istio配置 -->
  <rect x="420" y="100" width="300" height="330" fill="#f0fff4" stroke="#38a169" stroke-width="2" rx="5" ry="5"/>
  <text x="570" y="130" font-family="Arial" font-size="18" text-anchor="middle" fill="#2c5282">Istio配置</text>
  
  <!-- VirtualService -->
  <rect x="440" y="150" width="260" height="100" fill="#38a169" stroke="#2f855a" stroke-width="2" rx="5" ry="5"/>
  <text x="570" y="175" font-family="Arial" font-size="16" text-anchor="middle" fill="white">VirtualService</text>
  <text x="570" y="195" font-family="Arial" font-size="12" text-anchor="middle" fill="white">定义路由规则</text>
  <text x="570" y="215" font-family="Arial" font-size="12" text-anchor="middle" fill="white">支持基于路径、头部的路由</text>
  <text x="570" y="235" font-family="Arial" font-size="12" text-anchor="middle" fill="white">支持流量分割和重试策略</text>
  
  <!-- AuthorizationPolicy -->
  <rect x="440" y="260" width="260" height="80" fill="#38a169" stroke="#2f855a" stroke-width="2" rx="5" ry="5"/>
  <text x="570" y="285" font-family="Arial" font-size="16" text-anchor="middle" fill="white">AuthorizationPolicy</text>
  <text x="570" y="305" font-family="Arial" font-size="12" text-anchor="middle" fill="white">定义访问控制策略</text>
  <text x="570" y="325" font-family="Arial" font-size="12" text-anchor="middle" fill="white">支持基于身份、路径、方法的授权</text>
  
  <!-- RequestAuthentication -->
  <rect x="440" y="350" width="260" height="70" fill="#38a169" stroke="#2f855a" stroke-width="2" rx="5" ry="5"/>
  <text x="570" y="375" font-family="Arial" font-size="16" text-anchor="middle" fill="white">RequestAuthentication</text>
  <text x="570" y="395" font-family="Arial" font-size="12" text-anchor="middle" fill="white">配置JWT验证</text>
  
  <!-- 连接线 -->
  <path d="M 380 200 L 420 200" fill="none" stroke="#333" stroke-width="2" marker-end="url(#arrowhead)"/>
  <path d="M 380 300 L 420 300" fill="none" stroke="#333" stroke-width="2" marker-end="url(#arrowhead)"/>
  <path d="M 380 380 L 420 380" fill="none" stroke="#333" stroke-width="2" marker-end="url(#arrowhead)"/>
  
  <!-- 中间标签 -->
  <rect x="350" y="180" width="60" height="30" fill="white" fill-opacity="0.8" rx="15" ry="15" stroke="#ddd" stroke-width="1"/>
  <text x="380" y="200" font-family="Arial" font-size="12" text-anchor="middle" fill="#2d3748">创建</text>
  
  <rect x="350" y="280" width="60" height="30" fill="white" fill-opacity="0.8" rx="15" ry="15" stroke="#ddd" stroke-width="1"/>
  <text x="380" y="300" font-family="Arial" font-size="12" text-anchor="middle" fill="#2d3748">应用</text>
  
  <rect x="350" y="360" width="60" height="30" fill="white" fill-opacity="0.8" rx="15" ry="15" stroke="#ddd" stroke-width="1"/>
  <text x="380" y="380" font-family="Arial" font-size="12" text-anchor="middle" fill="#2d3748">验证</text>
  
  <!-- 底部注释 -->
  <rect x="100" y="440" width="600" height="40" fill="#fff5f7" stroke="#d53f8c" stroke-width="1" rx="5" ry="5"/>
  <text x="400" y="465" font-family="Arial" font-size="14" text-anchor="middle" fill="#2d3748">注意：Waypoint代理只为需要L7功能的服务配置，不需要为所有服务创建</text>
</svg>
