<?xml version="1.0" encoding="UTF-8" standalone="no"?>
<svg width="100%" height="100%" viewBox="0 0 800 500" preserveAspectRatio="xMidYMid meet" xmlns="http://www.w3.org/2000/svg">
  <!-- 定义箭头标记 -->
  <defs>
    <marker id="arrowhead" markerWidth="10" markerHeight="7" refX="9" refY="3.5" orient="auto">
      <polygon points="0 0, 10 3.5, 0 7" fill="#333"/>
    </marker>
  </defs>
  
  <!-- 背景 -->
  <rect x="0" y="0" width="800" height="500" fill="#f8f9fa" rx="10" ry="10"/>
  
  <!-- 标题 -->
  <text x="400" y="50" font-family="Arial" font-size="24" text-anchor="middle" fill="#2c5282" font-weight="bold">Waypoint代理工作流程</text>
  
  <!-- 命名空间框 -->
  <rect x="100" y="80" width="600" height="370" fill="white" stroke="#ddd" stroke-width="2" rx="10" ry="10"/>
  <text x="400" y="110" font-family="Arial" font-size="18" text-anchor="middle" fill="#2c5282">命名空间: demo-ambient</text>
  
  <!-- 客户端Pod -->
  <rect x="150" y="150" width="120" height="100" fill="#e2e8f0" stroke="#718096" stroke-width="2" rx="5" ry="5"/>
  <text x="210" y="180" font-family="Arial" font-size="16" text-anchor="middle" fill="#2d3748">客户端Pod</text>
  <rect x="175" y="200" width="70" height="30" fill="white" stroke="#718096" stroke-width="1" rx="3" ry="3"/>
  <text x="210" y="220" font-family="Arial" font-size="14" text-anchor="middle" fill="#2d3748">curl</text>
  
  <!-- httpbin服务 -->
  <rect x="400" y="150" width="120" height="100" fill="#4299e1" stroke="#3182ce" stroke-width="2" rx="5" ry="5"/>
  <text x="460" y="180" font-family="Arial" font-size="16" text-anchor="middle" fill="white">httpbin服务</text>
  
  <!-- 服务器Pod -->
  <rect x="530" y="150" width="120" height="100" fill="#e2e8f0" stroke="#718096" stroke-width="2" rx="5" ry="5"/>
  <text x="590" y="180" font-family="Arial" font-size="16" text-anchor="middle" fill="#2d3748">服务器Pod</text>
  <rect x="555" y="200" width="70" height="30" fill="white" stroke="#718096" stroke-width="1" rx="3" ry="3"/>
  <text x="590" y="220" font-family="Arial" font-size="14" text-anchor="middle" fill="#2d3748">httpbin</text>
  
  <!-- ztunnel -->
  <rect x="150" y="300" width="120" height="50" fill="#805ad5" stroke="#553c9a" stroke-width="2" rx="5" ry="5"/>
  <text x="210" y="330" font-family="Arial" font-size="16" text-anchor="middle" fill="white">ztunnel</text>
  
  <!-- Waypoint代理 -->
  <rect x="400" y="300" width="120" height="50" fill="#9f7aea" stroke="#6b46c1" stroke-width="2" rx="5" ry="5"/>
  <text x="460" y="325" font-family="Arial" font-size="14" text-anchor="middle" fill="white">Waypoint代理</text>
  <text x="460" y="345" font-family="Arial" font-size="12" text-anchor="middle" fill="white">httpbin-waypoint</text>
  
  <!-- 连接线 - 修改后的路径，避免穿过方格 -->
  <!-- 客户端到ztunnel -->
  <path d="M 210 250 L 210 300" fill="none" stroke="#333" stroke-width="2" marker-end="url(#arrowhead)"/>
  
  <!-- ztunnel到Waypoint -->
  <path d="M 270 325 L 400 325" fill="none" stroke="#333" stroke-width="2" marker-end="url(#arrowhead)"/>
  
  <!-- Waypoint到服务 - 修改路径避免穿过方格 -->
  <path d="M 460 300 L 460 270 L 460 250" fill="none" stroke="#333" stroke-width="2" marker-end="url(#arrowhead)"/>
  
  <!-- 服务到Pod - 修改路径避免穿过方格 -->
  <path d="M 520 200 L 555 200" fill="none" stroke="#333" stroke-width="2" marker-end="url(#arrowhead)"/>
  
  <!-- 标签 -->
  <rect x="170" y="265" width="80" height="20" fill="white" fill-opacity="0.8" rx="3" ry="3"/>
  <text x="210" y="280" font-family="Arial" font-size="12" text-anchor="middle" fill="#2d3748">1. 请求服务</text>
  
  <rect x="300" y="305" width="90" height="20" fill="white" fill-opacity="0.8" rx="3" ry="3"/>
  <text x="345" y="320" font-family="Arial" font-size="12" text-anchor="middle" fill="#2d3748">2. 查询目标向前</text>
  
  <rect x="470" y="275" width="90" height="20" fill="white" fill-opacity="0.8" rx="3" ry="3"/>
  <text x="515" y="290" font-family="Arial" font-size="12" text-anchor="middle" fill="#2d3748">3. 应用策略后转发</text>
  
  <!-- 图例 -->
  <rect x="150" y="400" width="20" height="20" fill="#e2e8f0" stroke="#718096" stroke-width="2" rx="3" ry="3"/>
  <text x="180" y="415" font-family="Arial" font-size="14" text-anchor="start" fill="#2d3748">Pod</text>
  
  <rect x="300" y="400" width="20" height="20" fill="#4299e1" stroke="#3182ce" stroke-width="2" rx="3" ry="3"/>
  <text x="330" y="415" font-family="Arial" font-size="14" text-anchor="start" fill="#2d3748">Kubernetes服务</text>
  
  <rect x="500" y="400" width="20" height="20" fill="#9f7aea" stroke="#6b46c1" stroke-width="2" rx="3" ry="3"/>
  <text x="530" y="415" font-family="Arial" font-size="14" text-anchor="start" fill="#2d3748">Waypoint代理</text>
  
  <line x1="650" y1="400" x2="700" y2="400" stroke="#333" stroke-width="2" marker-end="url(#arrowhead)"/>
  <text x="675" y="415" font-family="Arial" font-size="14" text-anchor="middle" fill="#2d3748">请求流</text>
</svg>
