<?xml version="1.0" encoding="UTF-8" standalone="no"?>
<svg width="100%" height="100%" viewBox="0 0 800 500" preserveAspectRatio="xMidYMid meet" xmlns="http://www.w3.org/2000/svg">
  <!-- 定义箭头标记 -->
  <defs>
    <marker id="arrowhead" markerWidth="10" markerHeight="7" refX="9" refY="3.5" orient="auto">
      <polygon points="0 0, 10 3.5, 0 7" fill="#333"/>
    </marker>
  </defs>
  
  <!-- 背景 -->
  <rect x="0" y="0" width="800" height="500" fill="#f8f9fa" rx="10" ry="10"/>
  
  <!-- 标题 -->
  <text x="400" y="50" font-family="Arial" font-size="24" text-anchor="middle" fill="#2c5282" font-weight="bold">Waypoint代理架构</text>
  
  <!-- 集群框 -->
  <rect x="50" y="80" width="700" height="370" fill="white" stroke="#ddd" stroke-width="2" rx="10" ry="10"/>
  <text x="400" y="110" font-family="Arial" font-size="18" text-anchor="middle" fill="#2c5282">Kubernetes集群</text>
  
  <!-- 命名空间框 -->
  <rect x="100" y="130" width="600" height="300" fill="#f7fafc" stroke="#e2e8f0" stroke-width="2" rx="5" ry="5"/>
  <text x="400" y="155" font-family="Arial" font-size="16" text-anchor="middle" fill="#2c5282">命名空间: demo-ambient</text>
  
  <!-- Waypoint代理 -->
  <rect x="300" y="180" width="200" height="80" fill="#805ad5" stroke="#553c9a" stroke-width="2" rx="5" ry="5"/>
  <text x="400" y="220" font-family="Arial" font-size="16" text-anchor="middle" fill="white">Waypoint代理</text>
  <text x="400" y="245" font-family="Arial" font-size="14" text-anchor="middle" fill="white">httpbin-waypoint</text>
  
  <!-- 服务 -->
  <rect x="150" y="320" width="120" height="60" fill="#3182ce" stroke="#2c5282" stroke-width="2" rx="5" ry="5"/>
  <text x="210" y="350" font-family="Arial" font-size="14" text-anchor="middle" fill="white">httpbin服务</text>
  <text x="210" y="370" font-family="Arial" font-size="12" text-anchor="middle" fill="white">ClusterIP</text>
  
  <!-- 应用Pod -->
  <rect x="530" y="320" width="120" height="60" fill="#e2e8f0" stroke="#718096" stroke-width="2" rx="5" ry="5"/>
  <text x="590" y="350" font-family="Arial" font-size="14" text-anchor="middle" fill="#2d3748">httpbin Pod</text>
  <text x="590" y="370" font-family="Arial" font-size="12" text-anchor="middle" fill="#2d3748">应用容器</text>
  
  <!-- 连接线 -->
  <!-- 服务到Waypoint -->
  <path d="M 210 320 L 210 220 L 300 220" fill="none" stroke="#333" stroke-width="2" marker-end="url(#arrowhead)"/>
  <!-- Waypoint到Pod -->
  <path d="M 500 220 L 590 220 L 590 320" fill="none" stroke="#333" stroke-width="2" marker-end="url(#arrowhead)"/>
  
  <!-- 标签 -->
  <rect x="220" y="200" width="70" height="20" fill="white" fill-opacity="0.8" rx="3" ry="3"/>
  <text x="255" y="215" font-family="Arial" font-size="12" text-anchor="middle" fill="#2d3748">流量入口</text>
  
  <rect x="510" y="200" width="70" height="20" fill="white" fill-opacity="0.8" rx="3" ry="3"/>
  <text x="545" y="215" font-family="Arial" font-size="12" text-anchor="middle" fill="#2d3748">流量出口</text>
  
  <!-- Waypoint组件 -->
  <rect x="150" y="180" width="120" height="30" fill="#9f7aea" stroke="#805ad5" stroke-width="1" rx="3" ry="3"/>
  <text x="210" y="200" font-family="Arial" font-size="12" text-anchor="middle" fill="white">Envoy代理</text>
  
  <rect x="150" y="215" width="120" height="30" fill="#9f7aea" stroke="#805ad5" stroke-width="1" rx="3" ry="3"/>
  <text x="210" y="235" font-family="Arial" font-size="12" text-anchor="middle" fill="white">L7策略引擎</text>
  
  <rect x="150" y="250" width="120" height="30" fill="#9f7aea" stroke="#805ad5" stroke-width="1" rx="3" ry="3"/>
  <text x="210" y="270" font-family="Arial" font-size="12" text-anchor="middle" fill="white">遥测收集器</text>
  
  <!-- 功能列表 -->
  <rect x="530" y="180" width="120" height="120" fill="#ebf8ff" stroke="#3182ce" stroke-width="1" rx="3" ry="3"/>
  <text x="590" y="200" font-family="Arial" font-size="12" text-anchor="middle" fill="#2c5282">Waypoint功能</text>
  <text x="590" y="220" font-family="Arial" font-size="10" text-anchor="middle" fill="#2d3748">- 流量管理</text>
  <text x="590" y="240" font-family="Arial" font-size="10" text-anchor="middle" fill="#2d3748">- 安全策略</text>
  <text x="590" y="260" font-family="Arial" font-size="10" text-anchor="middle" fill="#2d3748">- 可观察性</text>
  <text x="590" y="280" font-family="Arial" font-size="10" text-anchor="middle" fill="#2d3748">- 故障注入</text>
  
  <!-- 图例 -->
  <rect x="100" y="400" width="20" height="20" fill="#805ad5" stroke="#553c9a" stroke-width="2" rx="3" ry="3"/>
  <text x="130" y="415" font-family="Arial" font-size="14" text-anchor="start" fill="#2d3748">Waypoint代理</text>
  
  <rect x="250" y="400" width="20" height="20" fill="#3182ce" stroke="#2c5282" stroke-width="2" rx="3" ry="3"/>
  <text x="280" y="415" font-family="Arial" font-size="14" text-anchor="start" fill="#2d3748">Kubernetes服务</text>
  
  <rect x="450" y="400" width="20" height="20" fill="#e2e8f0" stroke="#718096" stroke-width="2" rx="3" ry="3"/>
  <text x="480" y="415" font-family="Arial" font-size="14" text-anchor="start" fill="#2d3748">应用Pod</text>
  
  <line x1="600" y1="410" x2="650" y2="410" stroke="#333" stroke-width="2" marker-end="url(#arrowhead)"/>
  <text x="680" y="415" font-family="Arial" font-size="14" text-anchor="start" fill="#2d3748">流量流向</text>
</svg>
